<?xml version="1.0" encoding="UTF-8"?>
<svg id="Ebene_1" data-name="Ebene 1" xmlns="http://www.w3.org/2000/svg" version="1.1" viewBox="0 0 512 512">
  <defs>
    <style>
      .cls-1 {
        fill: #a4aed8;
      }

      .cls-1, .cls-2 {
        stroke-width: 0px;
      }

      .cls-2 {
        fill: #bf1b1f;
      }
    </style>
  </defs>
  <rect class="cls-2" x="115.3" y="107.1" width="259.2" height="307"/>
  <g id="Layer_2" data-name="Layer 2">
    <g id="back">
      <path class="cls-1" d="M256,0C114.6,0,0,114.6,0,256s114.6,256,256,256,256-114.6,256-256S397.4,0,256,0ZM261.9,373.5c-32.8-32.4-65.4-65-97.8-97.7-11.9-11.9-11.7-28.4.2-40.3,32.4-32.5,64.8-65,97.3-97.3,9.6-9.6,21.4-14.2,34.9-13,37.8,1.4,55.7,50.8,28,76.4-18.2,18.6-35.8,35.7-54.5,54.4,19.4,17.9,37.4,36.8,56,55.4,39.3,43.3-21.5,102.5-64.2,62.1Z"/>
    </g>
  </g>
</svg>