<?xml version="1.0" encoding="UTF-8"?>
<svg id="Ebene_1" data-name="Ebene 1" xmlns="http://www.w3.org/2000/svg" viewBox="0 0 163.87 125">
  <defs>
    <style>
      .cls-1 {
        fill: #bf1b1f;
      }

      .cls-1, .cls-2 {
        stroke-width: 0px;
      }

      .cls-2 {
        fill: #fff;
      }
    </style>
  </defs>
  <g>
    <path class="cls-1" d="M121.82,80.85h15.75v2.6s1.96-5.17,12.38-2.18v2.65s3.37-5.86,12.46-2.32v9.48l-2.6-1.22s4.92,2.9,2.88,9.75c-1.77,5.83-7.77,5.72-7.77,5.72,0,0-3.12.39-6.27-2.32,0,0-2.98,4.89-11.86,1.49l.08-1.71-.63,2.43-29.04.17c4.87-8.18,9.74-16.36,14.61-24.54h0Z"/>
    <path class="cls-1" d="M142.56,106.4c-1.55,0-3.41-.31-5.63-1.11l-.16.62-30.8.18,15.44-25.93h16.84v1.3c1.63-1.4,5.05-2.82,11.88-.86l.5.14v1.35c1.8-1.61,5.6-3.64,12.02-1.14l.44.17v11.04l-.42-.2c1.02,1.72,1.73,4.31.67,7.85-1.9,6.25-8.38,6.22-8.44,6.21-.04,0-3.01.34-6.15-2.04-.82.89-2.73,2.42-6.19,2.42ZM137.51,104.02c7.81,2.8,10.44-1.21,10.55-1.38l.43-.68.61.52c2.86,2.46,5.63,2.17,5.74,2.16.32,0,5.59,0,7.19-5.24,1.87-6.26-2.52-8.93-2.56-8.96l.64-1.22,1.61.75v-7.91c-8.05-2.92-11.05,1.98-11.17,2.19l-1.29,2.19v-4.66c-9.16-2.46-10.97,1.73-11.05,1.91l-1.33,3.29v-5.45h-14.67l-13.79,23.15,27.28-.16,2.17-8.31-.37,7.81Z"/>
  </g>
  <g>
    <path class="cls-1" d="M103.64,17.32h5.06l.66,3.01,1.05-3.01h7.54l-.69,2.46s1.85-2.21,4.14-2.46c2.29-.25,3.57-.31,6.85.94l-.14,8.29-1.32.5s2.24,3.23,1.88,6.52c-.36,3.29-1.88,5.08-3.32,5.69,0,0-.33.47-5.83,1.35-4.45.72-15.92-23.29-15.92-23.29h.04Z"/>
    <path class="cls-1" d="M119.36,41.32c-4.82,0-14.47-19.68-16.39-23.7l-.47-.99h6.75l.26,1.17.41-1.17h8.94l-.31,1.1c.76-.52,1.72-.98,2.77-1.1,2.34-.25,3.73-.33,7.17.98l.45.17-.16,9.25-.98.37c.67,1.2,1.82,3.68,1.54,6.24-.33,3.02-1.69,5.34-3.65,6.22-.41.27-1.66.73-6.08,1.44-.09.01-.18.02-.27.02ZM104.7,18.02c5.46,11.24,12.3,22.33,14.71,21.92,4.06-.65,5.2-1.07,5.46-1.19l.03-.05.18-.08c.58-.24,2.49-1.34,2.9-5.13.33-3-1.74-6.02-1.76-6.05l-.51-.73,1.72-.64.12-7.33c-2.82-1.02-4-.95-6.08-.73-1.98.21-3.67,2.2-3.69,2.22l-2.06,2.45,1.31-4.66h-6.14l-1.69,4.86-1.07-4.86h-3.44Z"/>
  </g>
  <path class="cls-1" d="M62.5,125c34.52,0,62.5-27.98,62.5-62.5S97.02,0,62.5,0,0,27.98,0,62.5s27.98,62.5,62.5,62.5Z"/>
  <path class="cls-1" d="M62.36,121.88c32.93,0,59.62-26.7,59.62-59.63S95.29,2.63,62.36,2.63,2.74,29.32,2.74,62.25s26.7,59.63,59.63,59.63Z"/>
  <path class="cls-2" d="M80.13,103.31h-5.69v-21.11h10.06v4.97h-4.37v3.06h4.06v4.78h-4.06v8.29Z"/>
  <path class="cls-2" d="M92.42,103.31h-5.69v-21.11h5.69v21.11Z"/>
  <path class="cls-2" d="M102.73,103.31h-5.69v-16.06h-3.15v-5.06h12.1v5.06h-3.26v16.06Z"/>
  <path class="cls-2" d="M107.48,103.31v-21.11h5.44l2.85,7.4c.17.44.33.94.53,1.49.19.55.41,1.22.63,1.96l.58,1.85c-.22-1.83-.36-3.4-.47-4.7-.12-1.3-.17-2.4-.17-3.29v-4.75h5.44v21.11h-5.44l-2.88-7.77c-.31-.83-.58-1.6-.8-2.32-.25-.72-.44-1.41-.63-2.07.11,1.49.2,2.79.25,3.87.06,1.08.08,2.07.08,2.9v5.39h-5.44l.03.03h0Z"/>
  <path class="cls-2" d="M125.28,103.31v-21.11h10.58v4.97h-4.89v3.06h4.4v4.78h-4.4v3.23h4.89v5.06h-10.58Z"/>
  <path class="cls-2" d="M137.85,102.79v-6.63c1.14,1.52,2.32,2.29,3.65,2.29s.88-.14,1.21-.39c.31-.25.47-.58.47-.97,0-.55-.33-1.11-1.02-1.66l-.94-.72c-.61-.47-1.16-.94-1.57-1.38-.44-.47-.8-.94-1.08-1.41-.28-.5-.47-1-.61-1.52-.14-.52-.2-1.08-.2-1.63,0-1,.22-2.02.69-3.09.22-.5.49-.97.8-1.38.31-.41.63-.77,1.05-1.11,1.08-.91,2.37-1.35,3.9-1.35s2.74.36,4.09,1.08v6.44c-.47-.72-1-1.3-1.57-1.71-.58-.41-1.19-.61-1.74-.61s-.8.14-1.08.39c-.31.25-.44.55-.44.88,0,.55.39,1.13,1.16,1.69l.91.66c1.21.86,2.07,1.74,2.57,2.65.52.91.8,1.99.8,3.2,0,2.07-.63,3.78-1.91,5.14-1.27,1.35-2.88,2.02-4.81,2.02s-2.76-.31-4.31-.88h-.03,0Z"/>
  <path class="cls-2" d="M150.64,102.79v-6.63c1.13,1.52,2.32,2.29,3.65,2.29s.88-.14,1.22-.39c.33-.25.47-.58.47-.97,0-.55-.33-1.11-1.02-1.66l-.94-.72c-.61-.47-1.16-.94-1.57-1.38-.41-.44-.8-.94-1.08-1.41-.28-.5-.47-1-.61-1.52-.14-.52-.2-1.08-.2-1.63,0-1,.22-2.02.69-3.09.22-.5.5-.97.8-1.38.3-.41.63-.77,1.05-1.11,1.08-.91,2.37-1.35,3.89-1.35s2.74.36,4.09,1.08v6.44c-.47-.72-1-1.3-1.57-1.71-.58-.41-1.19-.61-1.74-.61s-.8.14-1.08.39c-.3.25-.44.55-.44.88,0,.55.39,1.13,1.16,1.69l.91.66c1.22.86,2.07,1.74,2.57,2.65.53.91.8,1.99.8,3.2,0,2.07-.63,3.78-1.91,5.14-1.27,1.35-2.87,2.02-4.81,2.02s-2.77-.31-4.31-.88h-.03,0Z"/>
  <path class="cls-2" d="M83.19,75.38h-6.6v-23.92h-3.65v-7.54h14.03v7.54h-3.78v23.92Z"/>
  <path class="cls-2" d="M106.82,59.74c0,4.81-.86,8.7-2.54,11.69-1.68,2.98-3.89,4.48-6.6,4.48s-4.48-1.16-6.19-3.46c-2.15-2.9-3.23-7.26-3.23-13.09s1.13-9.83,3.4-12.77c1.69-2.18,3.68-3.29,5.97-3.29s5.06,1.49,6.74,4.45c1.66,2.96,2.51,6.97,2.51,11.97l-.06.03ZM99.96,59.79c0-5.69-.77-8.54-2.35-8.54s-1.41.74-1.88,2.24c-.44,1.38-.69,3.43-.69,6.11s.22,4.7.63,6.16c.41,1.47,1.02,2.18,1.77,2.18s1.38-.72,1.8-2.15c.44-1.43.66-3.46.66-6.03l.06.03Z"/>
  <path class="cls-2" d="M72.78,38.63v-20.03h4.53c2.6,0,4.59.72,6.03,2.15,1.88,1.88,2.85,4.5,2.85,7.88s-.8,5.89-2.4,7.68c-1.35,1.55-3.4,2.32-6.11,2.32h-4.9ZM78,33.79c1.88-.08,2.82-1.77,2.82-5s-.25-2.87-.72-3.78c-.47-.94-1.13-1.41-1.94-1.41h-.17v10.2h0Z"/>
  <path class="cls-2" d="M101.87,38.63h-5.42l-.39-2.54h-3.54l-.41,2.54h-5.42l4.67-20.03h6.41l4.12,20.03h-.03ZM95.43,31.81l-.33-2.32s0-.14-.06-.36c0-.2-.11-.94-.28-2.26,0-.14-.03-.36-.06-.61,0-.25-.06-.58-.11-.97l-.17-1.91c0,.2-.03.39-.06.61-.03.22-.06.47-.08.74-.06.52-.11.91-.14,1.11,0,.22-.06.33-.06.39l-.36,2.43-.52,3.15h2.22Z"/>
  <path class="cls-2" d="M112.07,38.63h-5.22v-8.48l-4.81-11.55h5.47l.94,2.96c.19.58.36,1.13.5,1.69.14.52.28,1.05.39,1.55.2-.74.36-1.38.49-1.91.14-.52.28-.97.39-1.3l.97-2.98h5.42l-4.51,11.55v8.48h-.03,0Z"/>
  <path class="cls-2" d="M117.07,38.13v-6.3c1.02,1.46,2.15,2.18,3.34,2.18s.83-.11,1.11-.36c.28-.25.42-.55.42-.94,0-.52-.31-1.05-.94-1.57l-.86-.69c-.58-.44-1.05-.88-1.46-1.32s-.72-.88-.97-1.35c-.25-.47-.44-.94-.55-1.43-.11-.5-.17-1.02-.17-1.55,0-.94.22-1.91.63-2.93.22-.47.44-.91.72-1.3.28-.39.58-.74.97-1.05,1-.86,2.18-1.3,3.57-1.3s2.51.33,3.76,1.02v6.14c-.42-.69-.91-1.22-1.46-1.6-.55-.39-1.08-.58-1.6-.58s-.74.11-1,.36c-.28.22-.41.52-.41.86,0,.52.36,1.08,1.08,1.6l.83.63c1.11.83,1.91,1.66,2.37,2.54.49.86.72,1.88.72,3.04,0,1.96-.58,3.59-1.74,4.86-1.16,1.27-2.63,1.91-4.42,1.91s-2.54-.28-3.95-.86h.03Z"/>
  <path class="cls-2" d="M18.43,96.82l2.65-19.75c6.66,3.84,12.6,5.77,17.85,5.77s6.19-.86,8.32-2.6c2.15-1.71,3.23-3.98,3.23-6.74s-1.16-5.25-3.51-6.88c-2.35-1.63-5.63-2.46-9.86-2.46s-9.51.97-14.62,2.9l6.46-48.55h41.42v19.59h-23.73l-1.77,9.34c1.55-.11,2.82-.17,3.78-.17,6.83,0,12.6,2.49,17.32,7.43,4.67,4.89,7.02,11,7.02,18.35s-3.01,15.83-9.06,21.58c-5.97,5.75-13.51,8.62-22.6,8.62s-15.39-2.15-22.88-6.46l-.03.03h0Z"/>
  <path class="cls-1" d="M19.78,28.07s.06,0,.11.03c.83.17,1.77-.06,2.35-.69.58-.63.8-1.6.44-2.37.28.52.55,1.05.83,1.6.11.22.33.2.25.39-.44,1.11-1.19,2.21-2.35,2.51-.41.11-.86.11-1.27.17-.77.11-1.52.47-2.15.94-4.03,6.08-7.07,12.88-8.89,20.14.33,2.07.69,4.14.8,6.22.03.61-.06,1.22.06,1.8.17.74.63,1.38,1.11,1.96.14.17.31.36.52.41.22.06.5-.14.41-.36.14.06.28.06.41,0,.08-.03.14-.06.22-.06.06,0,.11.06.17.08.2.11.47.08.63-.11.08.25.44.36.69.22.25-.14.5-.47.44-.74.22-.17.44-.33.63-.5.08-.08.2-.17.25-.28.06-.14,0-.31,0-.44-.06-.22-.11-.47-.17-.69-.06-.31-.14-.61-.33-.83-.41-.47-1.13-.58-1.6-1.05-.91-.94-1-2.82-1.05-4.06-.14-2.15-.28-4.23-.14-6.38.03-.61.17-1.22.47-1.74.28-.5.69-.88,1.08-1.27.63-.63,1.24-1.33,1.83-2.02.39-.44,1-1.6,1.52-1.8.66,2.24,1.02,4.61,1.57,6.88.41,1.77.06,3.57-.31,5.33-.28,1.27-.94,2.43-1.55,3.62-.61,1.16-1.13,2.43-1.08,3.76.06,1.49.63,2.9,1.3,4.23.25.47.5.94.83,1.35,1.08,1.32,2.85,1.99,3.78,3.43.39.61.61,1.35.86,2.05.36.97.86,1.88,1.33,2.79.39.72.77,1.43,1.16,2.18.25.47-.2,1-.47,1.43-.28.44-.66.8-1.05,1.16-1.74,1.77-2.98,3.89-4.06,6.11-1.08,2.24-2.02,4.61-3.46,6.66-.47.63-.97,1.24-1.35,1.94-.58,1.02-.83,2.24-.72,3.43.22.47.47.94.72,1.38.28.08.61.11.91.11.63,0,1.3-.11,1.91.03.72.17,1.35.69,2.1.74.41.03.8-.06,1.22-.17.74-.22,1.49-.47,2.1-.97.61-.47,1.05-1.22,1.02-1.99,0-.5-.25-1-.69-1.19-.44-.2-.97-.06-1.43-.22-.63-.22-.94-.97-1.05-1.63-.2-1.3.14-3.06,1.08-4.06.44-.47.83-.83,1.22-1.35.47-.66.97-1.3,1.46-1.96,1.99-2.57,4.14-5,6.44-7.29.22,1.77-.2,3.46-.39,5.22-.28,2.24-.2,4.51.22,6.71.47,2.6,1.77,5.39.83,8.01-.2.55-.5,1.08-.74,1.63-.55,1.24-.74,2.63-.55,3.95.06.33.14.69.39.91.22.19.52.28.8.33.97.22,1.99.41,2.93.06.25-.11.47-.22.72-.28.39-.06.77.11,1.16.28.91.33,1.91.47,2.85.22,1-.25,1.41-1.3,1.41-2.32,0-.77-.41-1.6-1.13-1.91-.33-.14-.72-.17-1.05-.33-1.3-.74-.61-2.93-1.38-4.03-.2-.31-.5-.52-.61-.86-.08-.22-.08-.44-.08-.66,0-1.19.06-2.35.17-3.54.33-3.57.72-7.1.77-10.66,0-.88-.14-1.83-.03-2.71.08-.77.31-1.46.28-2.26-.08-1.6-.66-3.15-1.33-4.61-1.55-3.37-3.62-6.49-5.77-9.56-.94-1.33-1.8-2.65-2.07-4.28-.31-1.83-.58-3.62-.88-5.44-.06-.33-.11-.69-.06-1.02.08-.39.31-.74.52-1.08.5-.8.94-1.66,1.3-2.54.22-.55.83-1.83.61-2.43.74,1.96,1.22,4.28,2.87,5.69.22.2.44.36.72.47.44.17.88.03,1.22-.31,1.66-1.71,3.26-3.46,4.75-5.28.97.11,1.91-.28,2.65-.91.74-.61,1.24-1.43,1.69-2.29,1.35-.41,2.68-1.35,3.06-2.74.39-1.33-.06-2.85-1.08-3.76-.31-.25-.61-.47-.97-.63-.31-.17-.63-.28-.97-.33-1.57-.33-3.57.69-3.98,2.32,0,.03,0,.06-.06.08h-.06c-1.05-.31-2.4.31-3.12,1.05-.25.28-.47.58-.63.91-.47.91-.61,1.96-.39,2.96.22,1,.77,1.91,1.6,2.49-.47.22-.91.44-1.38.66-.36.17-.72.33-1.08.39h-.14s-.06-.06-.08-.08c-.06-.11-.11-.22-.14-.33-.17-1.24-.5-2.49-1.05-3.62-.17-.36-.36-.69-.47-1.08-.2-.63-.17-1.33-.22-1.99-.06-.55-.22-1.16-.47-1.66-.5-1.02-1.41-1.85-2.49-2.26-.66-.25-1.35-.33-1.99-.66-.33-.17-.66-.41-.77-.8-.11-.36.06-.72.2-1.08.39.31.83.58,1.27.8.33.17.8.22,1.13,0,.39-.22.31-.58.5-.91.08-.14.25-.22.39-.31.14-.09.25-.28.17-.44.11.08.25-.06.31-.2s.11-.31.25-.31c.17,0,.33.2.52.25.28.06.41-.03.5-.33.08-.33.14-.69.2-1.05,0-.11.03-.2.08-.31.06-.14.39-.74.52-.36.03.08,0,.17,0,.25-.03.08-.06.17-.06.25,0,.2.11.36.31.41,0-.17.11-.36.25-.47.28-.28.58-.44.8-.77.31-.41.55-.8.72-1.27.31-.91.22-1.96-.22-2.82-.22-.44-.55-.86-.86-1.24-.63-.8-1.27-1.6-1.91-2.43-.39-.47-.77-.97-1.35-1.19-.55-.22-1.16,0-1.63-.36-3.32,2.96-6.3,6.27-8.95,9.86l-.08.08h0Z"/>
</svg>